PathFileType  4	(X/Y/Z) C:\Users\antoi\Documents\MyRepositories\mobilecap\ResultsAnalysis
DataRate	CameraRate	NumFrames	NumMarkers	Units	OrigDataRate	OrigDataStartFrame	OrigNumFrames
100.0	100.0	5	51	mm	100.0	56	147
Frame#	Time	r_knee			r_shank_antsup			r_ankle			r_calc			r_5meta			r_toe			L_knee			L_shank_antsup			L_ankle			L_calc			L_5meta			L_toe			r_sh2			r_sh3			r_sh4			L_sh2			L_sh3			r_thigh1			r_thigh2			r_thigh3			r_thigh4			r_thigh5			L_thigh1			L_thigh2			L_thigh3			L_thigh4			r.ASIS			r.PSIS			L.ASIS			L.PSIS			C7			R_Shoulder			L_Shoulder			R_Sternum			L_Sternum			R_humerus			R_elbow_med			R_elbow_lat			R_forearm			R_wrist_radius			R_wrist_ulna			L_humerus			L_elbow_med			L_elbow_lat			L_forearm			L_wrist_radius			L_wrist_ulna			R_HJC			L_HJC			R_HJC_reg			L_HJC_reg			
		X1	Y1	Z1	X2	Y2	Z2	X3	Y3	Z3	X4	Y4	Z4	X5	Y5	Z5	X6	Y6	Z6	X7	Y7	Z7	X8	Y8	Z8	X9	Y9	Z9	X10	Y10	Z10	X11	Y11	Z11	X12	Y12	Z12	X13	Y13	Z13	X14	Y14	Z14	X15	Y15	Z15	X16	Y16	Z16	X17	Y17	Z17	X18	Y18	Z18	X19	Y19	Z19	X20	Y20	Z20	X21	Y21	Z21	X22	Y22	Z22	X23	Y23	Z23	X24	Y24	Z24	X25	Y25	Z25	X26	Y26	Z26	X27	Y27	Z27	X28	Y28	Z28	X29	Y29	Z29	X30	Y30	Z30	X31	Y31	Z31	X32	Y32	Z32	X33	Y33	Z33	X34	Y34	Z34	X35	Y35	Z35	X36	Y36	Z36	X37	Y37	Z37	X38	Y38	Z38	X39	Y39	Z39	X40	Y40	Z40	X41	Y41	Z41	X42	Y42	Z42	X43	Y43	Z43	X44	Y44	Z44	X45	Y45	Z45	X46	Y46	Z46	X47	Y47	Z47	X48	Y48	Z48	X49	Y49	Z49	X50	Y50	Z50	X51	Y51	Z51	

56	0.55000000	294.27478	456.71167	-77.60615	269.76243	386.03679	-59.49778	116.87779	123.46394	-122.09562	43.19530	106.11028	-165.37477	195.69617	44.00045	-90.56921	247.28351	53.99584	-143.08299	562.15998	464.14300	-340.81991	609.92003	420.26888	-342.37730	694.96019	117.90374	-329.12275	646.10332	54.12633	-287.84416	802.17244	111.83067	-347.03519	832.18367	155.05135	-290.99996	218.45496	285.58984	-63.98360	204.47314	418.15188	-79.56455	146.58429	318.84502	-89.02848	525.79198	394.01267	-365.04627	575.80020	282.20794	-368.98676	453.79519	743.88232	-62.11465	432.57062	632.35006	-57.69514	373.79243	622.37172	-26.68139	350.99239	763.20903	-13.61227	322.73394	650.59238	-30.13344	514.15641	746.83323	-366.18980	563.02935	618.29048	-357.12988	406.13781	704.11936	-385.00976	467.07850	574.34392	-371.74057	470.21352	894.93087	-70.52197	291.55079	920.65146	-156.94709	484.02660	894.52801	-329.33881	293.10182	907.92439	-263.72443	348.48905	1379.94852	-208.47235	426.10721	1326.56276	-61.08800	386.49696	1317.99041	-377.33266	463.78526	1294.18986	-200.28249	459.67751	1292.77335	-244.26929	495.22494	1091.77730	-13.57578	452.51767	980.49507	-48.85281	498.90855	1002.99289	3.55084	584.51726	923.44560	-40.76042	643.95232	828.18521	-84.31952	623.75259	804.58328	-52.82115	410.45787	1187.59938	-430.53254	351.92262	975.70249	-390.93378	356.42762	986.34314	-452.29438	414.99487	896.32250	-482.20023	449.72781	774.86457	-481.42979	415.67683	760.90720	-485.41863	404.14504	822.08140	-102.89489	418.34129	821.65941	-302.67267	404.97283	829.82322	-99.74643	407.43517	809.57884	-269.58560	
57	0.56000000	302.05384	456.38110	-77.65614	276.53419	386.06302	-59.50866	119.11369	125.92701	-121.96571	45.34151	110.01074	-165.25833	196.41750	44.39676	-90.58071	248.02676	53.67547	-142.96593	572.45041	461.84742	-340.78756	620.50389	419.20096	-342.25150	712.66367	118.40216	-330.51764	665.25192	52.80605	-290.07986	820.08423	115.55720	-347.73137	848.37502	159.35293	-291.12642	223.47761	286.46924	-63.96364	211.96453	419.63431	-79.66433	152.25779	320.90324	-89.24684	537.24601	391.13396	-366.33151	590.08988	280.56057	-370.69237	463.91425	742.14043	-61.61794	441.55365	631.03692	-56.72071	382.44677	621.55667	-26.60799	360.84665	762.60833	-14.46114	331.68095	650.12374	-30.77736	527.83061	744.68981	-365.20539	574.55603	615.03976	-355.78456	419.61160	703.36355	-386.27656	478.46477	572.82691	-372.50096	481.50489	893.39258	-70.06024	304.00826	919.28091	-158.68194	497.82344	892.99162	-328.68365	306.43995	906.56030	-265.42970	360.59202	1378.45316	-212.29096	438.43729	1327.21034	-64.26678	398.89355	1314.49637	-380.26676	475.98806	1293.04879	-203.05586	471.96592	1291.08343	-246.97539	506.71685	1092.53246	-14.48376	463.08959	980.92466	-48.17319	509.82505	1003.89527	3.66959	594.42166	923.06273	-40.28404	652.58953	826.76409	-83.00988	632.57791	803.75039	-50.99839	422.70274	1183.92002	-432.69975	365.06168	971.99507	-392.09447	369.25028	982.42921	-453.50104	428.05095	892.53189	-483.32891	463.29100	771.24588	-482.24325	429.28040	757.08687	-485.91466	415.66779	820.61561	-103.26381	432.02945	820.16317	-302.87796	416.60071	828.41155	-99.81967	420.46622	808.17797	-269.60495	
58	0.57000000	310.15499	456.01320	-77.75854	283.70489	386.17904	-59.54940	121.56212	128.53219	-121.76621	47.66373	114.13224	-165.12172	197.26728	44.87889	-90.62719	248.85511	53.40824	-142.84271	583.11341	459.56317	-340.96592	631.21103	417.70704	-342.35298	728.09875	117.95668	-331.68007	681.79430	51.16723	-291.67641	835.62822	117.51437	-348.52837	862.66553	161.92835	-291.66095	228.74887	287.39554	-63.94424	219.73644	421.19219	-79.72085	158.18078	323.02388	-89.45921	548.62723	388.46078	-367.66865	603.39061	278.75945	-372.28989	474.36786	740.33604	-61.25378	450.86392	629.56956	-56.03642	391.48866	620.68305	-26.64148	371.08561	761.91613	-15.36929	341.00465	649.58902	-31.48985	542.02991	742.80402	-364.14222	586.71391	612.11935	-354.29248	433.68772	702.71856	-387.59963	490.51291	571.48636	-373.24540	493.03542	891.85587	-69.63494	316.75012	917.75113	-160.47722	511.82046	891.50156	-328.15096	320.00067	905.08872	-267.18988	372.85813	1376.86507	-216.31603	450.92934	1327.86819	-67.63721	411.47106	1310.83935	-383.33164	488.36369	1291.84475	-205.97340	484.42426	1289.29597	-249.81127	518.29947	1093.35598	-15.37953	473.63334	981.43948	-47.37927	520.70916	1004.87202	3.87592	604.23475	922.67419	-39.63474	660.94960	825.25569	-81.44514	641.27577	802.90919	-48.85129	435.16925	1180.08007	-434.95215	378.33888	968.14178	-393.40039	382.27764	978.36913	-454.83646	441.33131	888.60252	-484.52665	477.11888	767.50270	-483.07180	443.14687	753.12535	-486.48488	427.51209	819.09380	-103.73028	446.00544	818.65778	-303.16083	428.58006	826.88267	-99.92170	433.75320	806.73326	-269.72448	
59	0.58000000	318.60810	455.57764	-77.91152	291.34356	386.38474	-59.62142	124.23125	131.27910	-121.48410	50.19164	118.46634	-164.96001	198.20265	45.42010	-90.68925	249.75648	53.17979	-142.71438	594.18573	457.27724	-341.32188	642.07555	415.69943	-342.69832	741.19705	116.43898	-332.57403	695.49412	49.31193	-292.58719	848.77955	117.32704	-349.38236	875.13766	162.38635	-292.56766	234.29136	288.35551	-63.91647	227.81600	422.72934	-79.75768	164.39371	325.20039	-89.63784	559.89792	385.91931	-368.92449	615.60693	276.66327	-373.62624	485.21614	738.44373	-61.05708	460.58012	627.95259	-55.64934	400.99186	619.71857	-26.80456	381.76769	761.10053	-16.31992	350.76134	648.95965	-32.25716	556.64766	741.18815	-363.06240	599.51397	609.57267	-352.75841	448.31214	702.15593	-388.92154	503.26384	570.29041	-373.98107	504.84991	890.29592	-69.29469	329.78250	916.04335	-162.30604	526.06851	890.09316	-327.78187	333.79894	903.50155	-268.97227	385.26774	1375.16330	-220.53785	463.56844	1328.50716	-71.20642	424.20443	1307.01839	-386.52283	500.90795	1290.55675	-209.03846	497.02681	1287.38982	-252.77715	529.93413	1094.21807	-16.27399	484.08851	982.05503	-46.45641	531.55066	1005.91408	4.16647	613.95025	922.28373	-38.81058	669.04760	823.67510	-79.63214	649.84830	802.05294	-46.38572	447.87467	1176.08295	-437.27143	391.76527	964.14837	-394.83969	395.53349	974.16728	-456.29880	454.86048	884.53426	-485.78723	491.20136	763.62282	-483.91769	457.27353	749.02797	-487.13143	439.73711	817.49160	-104.32060	460.29430	817.16610	-303.55132	440.95326	825.22678	-100.10919	447.35398	805.25150	-269.99832	
60	0.59000000	327.46567	455.04408	-78.11063	299.49051	386.64340	-59.72038	127.14350	134.17021	-121.11673	52.97125	123.02345	-164.76801	199.17988	45.99552	-90.74226	250.71944	52.97272	-142.58191	605.65790	454.98552	-341.77323	653.06864	413.16335	-343.25514	752.07522	113.89236	-333.21663	706.31665	47.49996	-292.91205	859.67557	114.81154	-350.22372	885.98584	160.46354	-293.72741	240.14434	289.33611	-63.87296	236.26504	424.15150	-79.80999	170.96109	327.42600	-89.76686	570.99529	383.44865	-369.96069	626.71126	274.20263	-374.57233	496.50119	736.44707	-61.05468	470.77553	626.21303	-55.52693	411.02066	618.63488	-27.10943	392.93173	760.13759	-17.30096	361.00478	648.20551	-33.06758	571.57993	739.81794	-362.04411	612.91371	607.38557	-351.30396	463.38769	701.63692	-390.19896	516.68881	569.19835	-374.72408	516.98487	888.68972	-69.09413	343.09759	914.14726	-164.14604	540.61650	888.80004	-327.60518	347.84785	901.79533	-270.75314	397.79455	1373.32851	-224.93782	476.32622	1329.09189	-74.97828	437.06962	1303.03156	-389.83156	513.60042	1289.15683	-212.25393	509.74050	1285.34823	-255.87539	541.57975	1095.08012	-17.16584	494.41498	982.76665	-45.40680	542.34088	1007.00313	4.53834	623.56297	921.89186	-37.80984	676.94158	822.04466	-77.57018	658.29029	801.17246	-43.62009	460.82606	1171.92988	-439.64423	405.35054	960.01940	-396.39516	409.03223	969.82216	-457.88292	468.65487	880.32536	-487.10125	505.52496	759.59262	-484.78203	471.65345	744.79845	-487.85117	452.38846	815.78914	-105.05985	474.91623	815.71170	-304.07889	453.74587	823.44366	-100.44857	461.32802	803.74533	-270.47737	
